<svg width="29" height="28" viewBox="0 0 29 28" fill="#f3274c" xmlns="http://www.w3.org/2000/svg">
										<path d="M11.8413 15C14.0504 15 15.8413 13.2091 15.8413 11C15.8413 8.79086 14.0504 7 11.8413 7C9.63217 7 7.84131 8.79086 7.84131 11C7.84346 13.2082 9.63306 14.9979 11.8413 15ZM11.8413 9C12.9459 9 13.8413 9.89543 13.8413 11C13.8413 12.1046 12.9459 13 11.8413 13C10.7367 13 9.84131 12.1046 9.84131 11C9.8428 9.89605 10.7374 9.00149 11.8413 9Z" fill="#f3274c"></path>
										<path d="M27.4653 17.57C28.1349 16.6731 28.3336 15.5094 27.9995 14.4411L27.3647 12.3757C26.7526 10.3642 24.8938 8.99215 22.7913 9L18.3042 9C17.7519 9 17.3042 9.44772 17.3042 10C17.3042 10.5523 17.7519 11 18.3042 11H22.7913C24.0147 10.9958 25.0962 11.7943 25.4524 12.9648L26.0872 15.0293C26.2292 15.4911 26.1437 15.9929 25.8568 16.3816C25.5698 16.7703 25.1154 16.9998 24.6323 17L15.4634 17C15.4351 17 15.4114 17.0137 15.3834 17.0161C15.3162 17.0135 15.2513 17 15.1831 17H8.91306C6.63117 16.9917 4.61413 18.4815 3.95116 20.665L3.20456 23.09C2.85091 24.2408 3.0643 25.4912 3.77961 26.4597C4.49492 27.4281 5.6273 27.9997 6.83126 28H17.2642C18.4675 28 19.6001 27.4287 20.3157 26.4604C21.0315 25.4914 21.2449 24.2409 20.8913 23.09L20.1452 20.6652C19.9562 20.0614 19.6586 19.4971 19.2671 19H24.6323C25.7513 19.0052 26.8048 18.4733 27.4653 17.57ZM18.7075 25.2712C18.371 25.7315 17.8343 26.0025 17.2642 26L6.83126 26C6.26201 26 5.72636 25.7297 5.38805 25.2717C5.04968 24.8134 4.94894 24.222 5.11646 23.6777L5.86256 21.2529C6.2696 19.9104 7.50972 18.9944 8.91256 19H15.1826C16.5854 18.9944 17.8255 19.9104 18.2326 21.2529L18.9787 23.6777C19.1493 24.2217 19.0484 24.8143 18.7075 25.2712Z" fill="#f3274c"></path>
										<path d="M20.3413 7C22.2743 7 23.8413 5.433 23.8413 3.5C23.8413 1.567 22.2743 0 20.3413 0C18.4083 0 16.8413 1.567 16.8413 3.5C16.8436 5.43204 18.4093 6.99768 20.3413 7ZM20.3413 2C21.1697 2 21.8413 2.67157 21.8413 3.5C21.8413 4.32843 21.1697 5 20.3413 5C19.5129 5 18.8413 4.32843 18.8413 3.5C18.8422 2.67196 19.5133 2.00094 20.3413 2Z" fill="#f3274c"></path>
										<path d="M0.841309 4C0.841309 4.55228 1.28902 5 1.84131 5H3.84131V7C3.84131 7.55229 4.28902 8 4.84131 8C5.39359 8 5.84131 7.55228 5.84131 7V5H7.84131C8.39359 5 8.84131 4.55228 8.84131 4C8.84131 3.44772 8.39359 3 7.84131 3H5.84131V1C5.84131 0.447715 5.39359 0 4.84131 0C4.28902 0 3.84131 0.447715 3.84131 1V3H1.84131C1.28902 3 0.841308 3.44772 0.841309 4Z" fill="#f3274c"></path>
									</svg>