<svg width="26" height="26" fill="#f3274c" viewBox="0 0 26 26" xmlns="http://www.w3.org/2000/svg">
										<path d="M0 8.7773C0.00165391 10.5563 1.44323 11.9981 3.2222 12H8.7778C10.5568 11.9981 11.9983 10.5563 12 8.7773V3.2227C11.9983 1.44373 10.5568 0.00192952 8.7778 0H3.2222C1.44323 0.00192952 0.00165319 1.44373 0 3.2227V8.7773ZM2 3.2227C2.00072 2.54791 2.54741 2.00099 3.2222 2L8.7778 2C9.45259 2.00099 9.99928 2.54791 10 3.2227V8.7773C9.99929 9.45209 9.45259 9.99901 8.7778 10L3.2222 10C2.54741 9.99901 2.00072 9.45209 2 8.7773V3.2227Z" fill="#f3274c"></path>
										<path d="M0 22.7773C0.00165272 24.5563 1.44323 25.9981 3.2222 26L8.7778 26C10.5568 25.9981 11.9983 24.5563 12 22.7773V17.2227C11.9983 15.4437 10.5568 14.0019 8.7778 14L3.2222 14C1.44323 14.0019 0.00165391 15.4437 0 17.2227V22.7773ZM2 17.2227C2.00072 16.5479 2.54741 16.001 3.2222 16H8.7778C9.45259 16.001 9.99928 16.5479 10 17.2227V22.7773C9.99929 23.4521 9.45259 23.999 8.7778 24L3.2222 24C2.54741 23.999 2.00071 23.4521 2 22.7773V17.2227Z" fill="#f3274c"></path>
										<path d="M20 0C16.6863 0 14 2.68629 14 6C14 9.31371 16.6863 12 20 12C23.3137 12 26 9.31371 26 6C25.9964 2.6878 23.3122 0.00363779 20 0ZM20 10C17.7909 10 16 8.20914 16 6C16 3.79086 17.7909 2 20 2C22.2091 2 24 3.79086 24 6C23.9977 8.20818 22.2082 9.99769 20 10Z" fill="#f3274c"></path>
										<path d="M17.2222 14C15.4432 14.0019 14.0017 15.4437 14 17.2227L14 22.7773C14.0017 24.5563 15.4432 25.9981 17.2222 26L22.7778 26C24.5568 25.9981 25.9984 24.5563 26 22.7773L26 17.2227C25.9983 15.4437 24.5568 14.0019 22.7778 14L17.2222 14ZM24 17.2227V22.7773C23.9993 23.4521 23.4526 23.999 22.7778 24L17.2222 24C16.5474 23.999 16.0007 23.4521 16 22.7773V17.2227C16.0007 16.5479 16.5474 16.001 17.2222 16H22.7778C23.4526 16.001 23.9993 16.5479 24 17.2227Z" fill="#f3274c"></path>
									</svg>