<svg width="29" height="29" viewBox="0 0 29 29" fill="#f3274c" xmlns="http://www.w3.org/2000/svg">
										<path d="M3.5 24.5001H4.5V27.5001C4.5 27.8384 4.67123 28.1539 4.95504 28.3384C5.23903 28.5229 5.5969 28.5512 5.9062 28.4137L14.7118 24.5001H21.5C23.1561 24.4983 24.4982 23.1562 24.5 21.5001L24.5 13.5001C24.5 12.9478 24.0523 12.5001 23.5 12.5001C22.9477 12.5001 22.5 12.9478 22.5 13.5001V21.5001C22.4995 22.0522 22.0521 22.4996 21.5 22.5001L14.5 22.5001L14.4916 22.5018C14.4266 22.5083 14.3625 22.5212 14.3 22.5401C14.2324 22.5482 14.1658 22.5631 14.1012 22.5845L14.0934 22.5862L6.5 25.9615V23.5001C6.5 22.9478 6.05228 22.5001 5.5 22.5001H3.5C2.94792 22.4996 2.50049 22.0522 2.5 21.5001V7.50012C2.5005 6.94804 2.94792 6.50062 3.5 6.50012L15.42 6.50012C15.9723 6.50012 16.42 6.05241 16.42 5.50012C16.42 4.94784 15.9723 4.50012 15.42 4.50012H3.5C1.8439 4.50194 0.501819 5.84402 0.5 7.50012L0.5 21.5001C0.50182 23.1562 1.8439 24.4983 3.5 24.5001Z" fill="#f3274c"></path>
										<path d="M23.5 10.5001C26.2614 10.5001 28.5 8.26155 28.5 5.50012C28.5 2.7387 26.2614 0.500122 23.5 0.500122C20.7386 0.500122 18.5 2.7387 18.5 5.50012C18.5033 8.2602 20.7399 10.4969 23.5 10.5001ZM23.5 2.50012C25.1569 2.50012 26.5 3.84327 26.5 5.50012C26.5 7.15698 25.1569 8.50012 23.5 8.50012C21.8431 8.50012 20.5 7.15698 20.5 5.50012C20.5018 3.84402 21.8439 2.50194 23.5 2.50012Z" fill="#f3274c"></path>
										<path d="M5.5 10.5001H10.5C11.0523 10.5001 11.5 10.0524 11.5 9.50012C11.5 8.94784 11.0523 8.50012 10.5 8.50012H5.5C4.94772 8.50012 4.5 8.94784 4.5 9.50012C4.5 10.0524 4.94772 10.5001 5.5 10.5001Z" fill="#f3274c"></path>
										<path d="M5.5 14.5001H14.5C15.0523 14.5001 15.5 14.0524 15.5 13.5001C15.5 12.9478 15.0523 12.5001 14.5 12.5001H5.5C4.94772 12.5001 4.5 12.9478 4.5 13.5001C4.5 14.0524 4.94772 14.5001 5.5 14.5001Z" fill="#f3274c"></path>
									</svg>